<svg id="Layer_1" data-name="Layer 1" xmlns="http://www.w3.org/2000/svg" xmlns:xlink="http://www.w3.org/1999/xlink" viewBox="0 0 111 48"><defs><style>.cls-1{fill:url(#linear-gradient);}.cls-2{fill:#fff;}</style><linearGradient id="linear-gradient" y1="10.11" x2="78.36" y2="10.11" gradientUnits="userSpaceOnUse"><stop offset="0" stop-color="#ff56f6"/><stop offset="0.25" stop-color="#b936ee"/><stop offset="0.55" stop-color="#3bace2"/><stop offset="1" stop-color="#406aff"/></linearGradient></defs><path class="cls-1" d="M3.52,20.23a3.07,3.07,0,0,1-1.76-.54A3.91,3.91,0,0,1,.48,18.27,4,4,0,0,1,0,16.32V3.9A4,4,0,0,1,1.76.53,3.14,3.14,0,0,1,3.52,0H14.69a3.19,3.19,0,0,1,1.77.53A3.92,3.92,0,0,1,17.75,2a4,4,0,0,1,.48,2V5.48H14.86V4.07a.33.33,0,0,0-.1-.24.33.33,0,0,0-.23-.09H3.65a.29.29,0,0,0-.22.09.36.36,0,0,0-.09.24V16.15a.32.32,0,0,0,.09.24.27.27,0,0,0,.22.1H14.53a.3.3,0,0,0,.23-.1.3.3,0,0,0,.1-.24V12.5H10.74V8.76h7.49v7.56a4,4,0,0,1-.48,1.95,3.84,3.84,0,0,1-1.29,1.42,3.13,3.13,0,0,1-1.77.54Z"/><path class="cls-1" d="M21.07,20.23V0H37.85V3.74H24.43V8.23H35.22V12H24.43v4.49H37.85v3.74Z"/><path class="cls-1" d="M40.46,20.23V0H55.15a3.19,3.19,0,0,1,1.77.53A3.92,3.92,0,0,1,58.21,2a4,4,0,0,1,.48,2V16.32a4,4,0,0,1-.48,1.95,3.84,3.84,0,0,1-1.29,1.42,3.13,3.13,0,0,1-1.77.54Zm3.62-3.74H55a.3.3,0,0,0,.23-.1.3.3,0,0,0,.1-.24V4.07a.33.33,0,0,0-.1-.24A.33.33,0,0,0,55,3.74H44.08a.27.27,0,0,0-.21.09.36.36,0,0,0-.09.24V16.15a.32.32,0,0,0,.09.24A.25.25,0,0,0,44.08,16.49Z"/><path class="cls-1" d="M61.58,20.23V0H78.36V3.74H64.94V8.23H75.73V12H64.94v4.49H78.36v3.74Z"/><path class="cls-2" d="M6.63,48,0,27.77H3.54L8,41.12l4.41-13.35h3.26L20,41.12l4.38-13.35H28L21.34,48H18.71L14,33.67,9.27,48Z"/><path class="cls-2" d="M29.75,31.68a4,4,0,0,1,.48-1.95,3.91,3.91,0,0,1,1.28-1.42,3.07,3.07,0,0,1,1.76-.54H44.44a3.13,3.13,0,0,1,1.77.54,3.84,3.84,0,0,1,1.29,1.42A4,4,0,0,1,48,31.68V48H44.61V41.2H33.09V48H29.75Zm14.86,5.81V31.85a.3.3,0,0,0-.1-.24.3.3,0,0,0-.23-.1H33.4a.27.27,0,0,0-.22.1.32.32,0,0,0-.09.24v5.64Z"/><path class="cls-2" d="M50.89,48V27.77h3.34V36h12V27.77h3.35V48H66.18V39.77h-12V48Z"/><path class="cls-2" d="M79.5,48V40.42L71.1,27.77h4l6.15,8.57,6.08-8.57h4L82.87,40.44V48Z"/><path class="cls-2" d="M94.53,47.47a4,4,0,0,1-1.76-3.37V27.77h3.34V43.93a.36.36,0,0,0,.09.24.29.29,0,0,0,.22.09H107.3a.33.33,0,0,0,.23-.09.33.33,0,0,0,.1-.24V27.77H111V44.1a4,4,0,0,1-1.76,3.37,3.14,3.14,0,0,1-1.76.53H96.29A3.14,3.14,0,0,1,94.53,47.47Z"/></svg>